<svg xmlns="http://www.w3.org/2000/svg" width="57.749" height="74.546" viewBox="0 0 57.749 74.546">
  <path id="m-c-h" d="M21.695,72.879c-6.918-.357-17.618-.357-20.412-7.448-4.512-11.461,3.751-25.116,11.3-33.474a40.234,40.234,0,0,1,3.078-3.073c2.746-2.413,5.7-5.274,9.231-6.461l-3.417,6.343,4.951-6.54h2.61l3.447,6.961v-.023l-1.5-6.832c6.4,1.19,16.646,14.2,19.961,20.117a55.972,55.972,0,0,1,4.389,10.064c2.413,9,.088,17.424-9.679,19.378-4.208.847-10.925,1.153-16.8,1.153C26.189,73.045,23.7,72.983,21.695,72.879Zm-7.209-60.96a2.55,2.55,0,0,1-.66-1.641c0-2.218,3.316-4.161,5.051-4.864l3.771,7.092C21.529,9.2,20.525,5.856,19.7,2.467c3.2-3.509,15.55-3.045,19.1-.06l-3.317,7.822c1.782-2.323,2.377-3.281,3.417-4.571a10.285,10.285,0,0,1,1.256.97,5.087,5.087,0,0,1,1.938,3.09A3.194,3.194,0,0,1,41.2,12.3L33.663,21.09a15.921,15.921,0,0,1-2.842-.725c.427-1,.946-2.111,1.375-3.12l-2.748,2.971a10.308,10.308,0,0,0-7.311.893Z" transform="translate(0.765 0.751)" fill="#e4c1f9" stroke="#bb9ecc" stroke-width="1.5"/>
</svg>
