<svg xmlns="http://www.w3.org/2000/svg" width="34.554" height="75.184" viewBox="0 0 34.554 75.184">
  <path id="s-f-h" d="M-3444.859-2587.316a.977.977,0,0,1-.125-.005,6.758,6.758,0,0,1-4.845-2.033,9.123,9.123,0,0,1-2.151-4.935,1.227,1.227,0,0,1-.013-.162H-3452v-34.62a1.031,1.031,0,0,1,.005-.131c.414-5.234,1.319-5.889,2.633-10.348a57.977,57.977,0,0,1,4.821-11.663,2.782,2.782,0,0,1-1.906-.821,2.8,2.8,0,0,1-.823-1.98v-4.19a2.794,2.794,0,0,1,.823-1.98,2.784,2.784,0,0,1,1.972-.815h18.012a2.787,2.787,0,0,1,1.978.821,2.8,2.8,0,0,1,.823,1.98v4.19a2.793,2.793,0,0,1-.823,1.979,2.792,2.792,0,0,1-1.978.821h-.341a58.16,58.16,0,0,1,5.366,12.064c1.434,4.576,2.26,5.085,2.493,9.947v33.609a.8.8,0,0,1-.006.124,9.379,9.379,0,0,1-1.719,5.427,7.39,7.39,0,0,1-5.061,2.711,1.31,1.31,0,0,1-.151.011Zm18.361-58.917q-1.139-2.336-2.513-4.615l-13.4.1q-1.224,2.155-2.285,4.52Z" transform="translate(3452.75 2661.75)" fill="#ace3c1" stroke="#8dba9f" stroke-width="1.5"/>
</svg>
