<svg xmlns="http://www.w3.org/2000/svg" width="33.055" height="73.684" viewBox="0 0 33.055 73.684"><defs><style>.a{fill:#ace3c1;}</style></defs><g transform="translate(-590.848 -1213.639)"><path class="a" d="M7.141,73.684a.919.919,0,0,1-.125-.006A6.757,6.757,0,0,1,2.17,71.645,9.12,9.12,0,0,1,.019,66.71a1.113,1.113,0,0,1-.014-.162H0V31.928A.949.949,0,0,1,.005,31.8c.414-5.234,1.319-5.889,2.632-10.348A58,58,0,0,1,7.459,9.785a2.808,2.808,0,0,1-2.729-2.8V2.795A2.8,2.8,0,0,1,7.524,0H25.537a2.806,2.806,0,0,1,2.8,2.8V6.99a2.806,2.806,0,0,1-2.8,2.8H25.2a58.12,58.12,0,0,1,5.366,12.064c1.434,4.576,2.26,5.085,2.493,9.947V65.411a.867.867,0,0,1-.006.124,9.384,9.384,0,0,1-1.72,5.427,7.387,7.387,0,0,1-5.061,2.711,1.223,1.223,0,0,1-.151.011ZM2.092,66.47a7.107,7.107,0,0,0,1.6,3.73,4.709,4.709,0,0,0,3.406,1.38H26.064a5.368,5.368,0,0,0,3.621-1.907,7.383,7.383,0,0,0,1.285-4.24V52.254H2.092Zm7.5-56.223A55.716,55.716,0,0,0,4.634,22.034c-1.271,4.318-2.151,4.828-2.548,9.919V36.2h28.89V31.844c-.229-4.665-1.025-4.982-2.406-9.377a56.384,56.384,0,0,0-5.582-12.316ZM7.026,2.3a.712.712,0,0,0-.21.5V6.99a.7.7,0,0,0,.21.5.72.72,0,0,0,.5.21H9.952V2.092H7.524A.705.705,0,0,0,7.026,2.3Zm16.256-.21v5.6h2.254a.7.7,0,0,0,.5-.21.714.714,0,0,0,.209-.5V2.795a.69.69,0,0,0-.209-.5.708.708,0,0,0-.5-.21H23.282Zm-5.839,5.6h3.734v-5.6H17.443Zm-5.385,0h3.28v-5.6h-3.28Z" transform="translate(590.849 1213.639)"/><path class="a" d="M25.221-10.045,30.7,1.663V43.717a4.264,4.264,0,0,1-4.264,4.264H4.264A4.264,4.264,0,0,1,0,43.717L.13,2.481,5.118-10.045Z" transform="translate(591.83 1238.45)"/><rect class="a" width="21.319" height="7.675" transform="translate(596.947 1214.8)"/></g></svg>