<svg xmlns="http://www.w3.org/2000/svg" width="74.041" height="74.079" viewBox="0 0 74.041 74.079">
  <path id="t-b-h" d="M72.219,36.454a.8.8,0,0,0-.676-.242c-9.093-.424-8.3-9.519-17.131-18.085-9-8.723-17.232-7.269-18.066-16.775a1.332,1.332,0,0,0-.279-.914c-.3-.319-.35-.308-.9-.364A18.465,18.465,0,0,0,25,2.027l-9.794,4.99A18.733,18.733,0,0,0,7.02,15.208L2.047,24.967A18.793,18.793,0,0,0,.231,36.436L1.943,47.242A18.776,18.776,0,0,0,7.207,57.579l7.76,7.758a18.707,18.707,0,0,0,10.3,5.251l10.868,1.721A18.69,18.69,0,0,0,47.546,70.5l9.794-4.989a18.74,18.74,0,0,0,8.188-8.191L70.5,47.563A18.991,18.991,0,0,0,72.422,36.94.6.6,0,0,0,72.219,36.454ZM24.936,52.135A4.534,4.534,0,1,1,29.469,47.6,4.534,4.534,0,0,1,24.936,52.135Zm4.534-22.669A4.534,4.534,0,1,1,34,24.933,4.534,4.534,0,0,1,29.469,29.467ZM52.138,47.6a4.534,4.534,0,1,1,4.534-4.534A4.534,4.534,0,0,1,52.138,47.6Z" transform="translate(0.764 0.776)" fill="#ff99c8" stroke="#d17ea5" stroke-width="1.5"/>
</svg>
